<?xml version="1.0" standalone="no"?><!DOCTYPE svg PUBLIC "-//W3C//DTD SVG 1.1//EN" "http://www.w3.org/Graphics/SVG/1.1/DTD/svg11.dtd"><svg t="1488691029513" class="icon" style="" viewBox="0 0 1024 1024" version="1.1" xmlns="http://www.w3.org/2000/svg" p-id="5816" xmlns:xlink="http://www.w3.org/1999/xlink" width="32" height="32"><defs><style type="text/css"></style></defs><path d="M907.03866 576.835657c-20.639063 0-37.370119 16.731056-37.370119 37.370119L869.668541 869.670076 614.205265 869.670076c-20.638039 0-37.369096 16.731056-37.369096 37.370119 0 20.638039 16.731056 37.369096 37.369096 37.369096l292.833395 0c20.638039 0 37.369096-16.731056 37.369096-37.369096L944.407756 614.204753C944.406732 593.56569 927.676699 576.835657 907.03866 576.835657z" p-id="5817" fill="#ffffff"></path><path d="M116.960317 447.162296c20.638039 0 37.369096-16.730033 37.369096-37.369096L154.329413 154.329924l255.464299 0c20.638039 0 37.369096-16.731056 37.369096-37.369096s-16.730033-37.369096-37.369096-37.369096L116.960317 79.591733c-20.638039 0-37.369096 16.730033-37.369096 37.369096l0 292.833395C79.591221 430.432263 96.322277 447.162296 116.960317 447.162296z" p-id="5818" fill="#ffffff"></path><path d="M409.793712 869.670076 154.329413 869.670076 154.329413 614.204753c0-20.639063-16.730033-37.370119-37.369096-37.370119s-37.369096 16.731056-37.369096 37.370119l0 292.834418c0 20.638039 16.731056 37.369096 37.369096 37.369096l292.833395 0c20.638039 0 37.369096-16.731056 37.369096-37.369096C447.162808 886.400109 430.431751 869.670076 409.793712 869.670076z" p-id="5819" fill="#ffffff"></path><path d="M907.03866 79.591733 614.205265 79.591733c-20.638039 0-37.369096 16.730033-37.369096 37.369096s16.731056 37.369096 37.369096 37.369096l255.464299 0 0 255.464299c0 20.639063 16.731056 37.369096 37.370119 37.369096 20.638039 0 37.369096-16.730033 37.369096-37.369096L944.408779 116.960829C944.406732 96.321766 927.676699 79.591733 907.03866 79.591733z" p-id="5820" fill="#ffffff"></path><path d="M907.03866 471.744157 116.960317 471.744157c-20.638039 0-37.369096 16.731056-37.369096 37.369096 0 20.639063 16.731056 37.369096 37.369096 37.369096l790.07732 0c20.638039 0 37.369096-16.730033 37.369096-37.369096C944.406732 488.47419 927.676699 471.744157 907.03866 471.744157z" p-id="5821" fill="#ffffff"></path></svg>