<?xml version="1.0" standalone="no"?><!DOCTYPE svg PUBLIC "-//W3C//DTD SVG 1.1//EN" "http://www.w3.org/Graphics/SVG/1.1/DTD/svg11.dtd"><svg t="1488691506930" class="icon" style="" viewBox="0 0 1024 1024" version="1.1" xmlns="http://www.w3.org/2000/svg" p-id="10115" xmlns:xlink="http://www.w3.org/1999/xlink" width="32" height="32"><defs><style type="text/css"></style></defs><path d="M517.146207 819.310108c1.340531 3.38305 2.131547 7.046486 2.131547 10.906397l0 72.063269 89.022523 0c16.388249 0 29.673833 13.288654 29.673833 29.677926 0 16.384156-13.285584 29.67281-29.673833 29.67281L370.907565 961.630511c-16.388249 0-29.673833-13.288654-29.673833-29.67281 0-16.389272 13.285584-29.677926 29.673833-29.677926l89.022523 0 0-72.063269c0-2.110057 0.236384-4.163833 0.654916-6.149047-17.787108-1.817392-36.382629-2.876514-55.662741-2.876514-1.663896 0-3.307326 0.033769-4.963035 0.047072-38.965453-2.848884-75.558883-10.006911-110.396319-28.288277-13.20679-6.928806-18.342764-23.329335-11.455913-36.624129 6.885827-13.299911 23.189142-18.438954 36.368302-11.532661 42.452881 22.271236 92.750427 24.077372 149.343353 24.077372 178.431855 0 323.602166-146.156778 323.602166-325.815577 0-179.662893-145.170311-325.815577-323.602166-325.815577-14.891152 0-26.966165-12.159948-26.966165-27.15036 0-14.996552 12.075013-27.1565 26.966165-27.1565 208.17732 0 377.536542 170.516582 377.536542 380.122437C841.355193 634.426307 700.150194 793.135982 517.146207 819.310108zM731.244376 442.070324c0 148.078547-119.968325 268.550339-267.419586 268.550339s-267.420609-120.471792-267.420609-268.550339c0-148.08571 119.968325-268.556479 267.420609-268.556479S731.244376 293.984614 731.244376 442.070324zM349.298408 292.845675c-9.933233 9.930163-9.933233 26.038026 0 35.967166l64.770166 64.771189-47.399543 0c-14.047947 0-25.435299 11.384281-25.435299 25.433252 0 14.048971 11.387351 25.432229 25.435299 25.432229l76.304873 0 0 33.919531-76.304873 0c-14.047947 0-25.435299 11.384281-25.435299 25.432229 0 14.048971 11.387351 25.432229 25.435299 25.432229l76.304873 0 0 59.352783c0 14.048971 11.387351 25.432229 25.435299 25.432229 14.046924 0 25.435299-11.384281 25.435299-25.432229l0-59.352783 76.304873 0c14.047947 0 25.435299-11.383258 25.435299-25.432229 0-14.048971-11.387351-25.432229-25.435299-25.432229l-76.304873 0 0-33.919531 76.304873 0c14.047947 0 25.435299-11.384281 25.435299-25.432229 0-14.048971-11.387351-25.433252-25.435299-25.433252l-38.921451 0 64.770166-64.771189c9.933233-9.92914 9.933233-26.038026 0-35.967166-9.933233-9.93528-26.037003-9.93528-35.970236 0l-87.379093 87.380116-87.379093-87.380116C375.335411 282.910395 359.231641 282.910395 349.298408 292.845675z" p-id="10116" fill="#ffffff"></path></svg>