<?xml version="1.0" standalone="no"?><!DOCTYPE svg PUBLIC "-//W3C//DTD SVG 1.1//EN" "http://www.w3.org/Graphics/SVG/1.1/DTD/svg11.dtd"><svg t="1488691838581" class="icon" style="" viewBox="0 0 1024 1024" version="1.1" xmlns="http://www.w3.org/2000/svg" p-id="22662" xmlns:xlink="http://www.w3.org/1999/xlink" width="32" height="32"><defs><style type="text/css"></style></defs><path d="M323.223031 305.501926l377.551892 0c31.955806 0 57.961086-25.985838 57.961086-57.950853L758.736009 123.272581c0-31.965016-26.00528-57.980529-57.961086-57.980529L323.223031 65.292052c-31.93534 0-57.921177 26.015513-57.921177 57.980529L265.301853 247.551072C265.302877 279.516088 291.287691 305.501926 323.223031 305.501926zM336.276325 220.949204l0-71.793116c0 0-0.040932-6.41613 3.419889-9.865695 3.460822-3.471055 9.025561-3.006474 9.025561-3.006474l324.712453 0c0 0 7.628748-0.657986 11.353582 3.278673 3.237741 3.440355 2.954285 8.731872 2.954285 8.731872l0 74.646094c0 0 0.830925 4.897543-3.703345 8.337899-4.51278 3.471055-9.1678 3.227508-9.1678 3.227508L351.009887 234.505965c0 0-6.800893 0.657986-11.313673-3.00545C335.183434 227.839125 336.276325 220.949204 336.276325 220.949204z" p-id="22663" fill="#ffffff"></path><path d="M725.607494 346.604042c-14.470573-14.297634-37.884842-10.412141-46.971801-1.336438-17.464767 17.475-10.624988 43.663452-0.101307 54.460356 26.309202 27.048029 50.695612 67.856457 50.695612 111.387903l0 355.279632c0 11.768021-9.552563 21.321608-21.290909 21.321608l-241.09094 0-14.409175 0L316.058864 887.717104c-11.738345 0-21.290909-9.553587-21.290909-21.321608l0-50.148144 312.550459 0c15.663748 0 28.392654-12.69923 28.392654-28.404933L635.711068 542.786167c0-15.672958-12.728906-28.401864-28.392654-28.401864L294.768979 514.384303l0-3.26844c0-43.531446 24.38641-84.339874 50.695612-111.387903 10.544147-10.796904 17.383926-36.985356-0.101307-54.460356-9.04705-9.075703-32.481785-12.961196-46.951335 1.336438-38.047548 37.550221-74.65735 95.997378-74.65735 164.511821l0 355.279632c0 50.897204 41.407062 92.313475 92.304266 92.313475l136.38011 0 14.409175 0 241.09094 0c50.91767 0 92.303242-41.416272 92.303242-92.313475L800.242332 511.11484C800.243355 442.600397 763.633552 384.154263 725.607494 346.604042zM350.665033 647.970788c0-5.242398 4.249791-9.481955 9.471722-9.481955l60.975746 0 0-61.006446c0-5.210675 4.270257-9.449209 9.511631-9.449209l36.81344 0c5.220908 0 9.450233 4.239558 9.450233 9.449209l0 61.006446 60.995189 0c5.241374 0 9.491165 4.239558 9.491165 9.481955l0 36.81344c0 5.210675-4.249791 9.449209-9.491165 9.449209l-60.995189 0 0 61.006446c0 5.242398-4.230348 9.471722-9.450233 9.471722l-36.81344 0c-5.241374 0-9.511631-4.229325-9.511631-9.471722l0-61.006446-60.975746 0c-5.221932 0-9.471722-4.239558-9.471722-9.449209L350.665033 647.970788z" p-id="22664" fill="#ffffff"></path></svg>