<?xml version="1.0" standalone="no"?><!DOCTYPE svg PUBLIC "-//W3C//DTD SVG 1.1//EN" "http://www.w3.org/Graphics/SVG/1.1/DTD/svg11.dtd"><svg t="1488691118704" class="icon" style="" viewBox="0 0 1024 1024" version="1.1" xmlns="http://www.w3.org/2000/svg" p-id="7061" xmlns:xlink="http://www.w3.org/1999/xlink" width="32" height="32"><defs><style type="text/css"></style></defs><path d="M228.888526 361.364211l23.966854 0c6.611581 0 11.982916-5.372358 11.982916-11.983939L264.838296 85.74385c0-6.611581-5.371334-11.983939-11.982916-11.983939l-23.966854 0c-6.611581 0-11.982916 5.372358-11.982916 11.983939L216.90561 349.380272C216.90561 355.991854 222.276944 361.364211 228.888526 361.364211zM360.70776 361.364211l71.900563 0c6.612605 0 11.983939-5.372358 11.983939-11.983939L444.592262 85.74385c0-6.611581-5.371334-11.983939-11.983939-11.983939l-71.900563 0c-6.611581 0-11.983939 5.372358-11.983939 11.983939L348.723821 349.380272C348.723821 355.991854 354.095155 361.364211 360.70776 361.364211zM768.145309 361.364211l23.967878 0c6.610558 0 11.981892-5.372358 11.981892-11.983939L804.09508 85.74385c0-6.611581-5.371334-11.983939-11.981892-11.983939l-23.967878 0c-6.611581 0-11.982916 5.372358-11.982916 11.983939L756.162394 349.380272C756.162394 355.991854 761.533728 361.364211 768.145309 361.364211zM672.277892 505.165338l0 215.702714c0 19.848047 16.114003 35.950793 35.950793 35.950793s35.950793-16.101723 35.950793-35.950793l0-215.702714c0-19.848047-16.114003-35.950793-35.950793-35.950793S672.277892 485.317291 672.277892 505.165338zM875.996666 361.364211l59.918671 0c6.611581 0 11.982916-5.372358 11.982916-11.983939L947.898253 85.74385c0-6.611581-5.371334-11.983939-11.982916-11.983939l-59.918671 0c-6.610558 0-11.982916 5.372358-11.982916 11.983939L864.013751 349.380272C864.013751 355.991854 869.386108 361.364211 875.996666 361.364211zM696.244746 349.380272 696.244746 85.74385c0-6.611581-5.372358-11.983939-11.982916-11.983939L612.360244 73.759911c-6.611581 0-11.982916 5.372358-11.982916 11.983939L600.377328 349.380272c0 6.611581 5.371334 11.983939 11.982916 11.983939l71.901587 0C690.872389 361.364211 696.244746 355.991854 696.244746 349.380272zM519.149329 469.214545 82.430896 469.214545c-11.773138 0-21.310352 9.537214-21.310352 21.310352l0 436.718433c0 11.772115 9.537214 21.310352 21.310352 21.310352l436.718433 0c11.772115 0 21.309328-9.538237 21.309328-21.310352L540.458657 490.524896C540.458657 478.751758 530.921443 469.214545 519.149329 469.214545zM468.558094 876.653117 133.021108 876.653117 133.021108 541.115108l335.536986 0L468.558094 876.653117zM923.931399 660.951427c-19.848047 0-35.950793 16.101723-35.950793 35.950793l0 179.750897L708.228685 876.653117c-19.836791 0-35.950793 16.102746-35.950793 35.950793s16.114003 35.950793 35.950793 35.950793l215.702714 0c19.848047 0 35.950793-16.102746 35.950793-35.950793L959.882192 696.90222C959.882192 677.05315 943.778422 660.951427 923.931399 660.951427zM85.087399 361.364211l59.916625 0c6.612605 0 11.983939-5.372358 11.983939-11.983939L156.987962 85.74385c0-6.611581-5.371334-11.983939-11.983939-11.983939L85.087399 73.759911c-6.611581 0-11.983939 5.372358-11.983939 11.983939L73.10346 349.380272C73.10346 355.991854 78.474794 361.364211 85.087399 361.364211zM923.931399 469.214545c-19.848047 0-35.950793 16.102746-35.950793 35.950793l0 47.933709c0 19.848047 16.102746 35.950793 35.950793 35.950793s35.950793-16.102746 35.950793-35.950793l0-47.933709C959.882192 485.317291 943.778422 469.214545 923.931399 469.214545zM252.856403 780.785699l95.867418 0c13.236466 0 23.966854-10.743692 23.966854-23.967878l0-95.867418c0-13.224186-10.731412-23.967878-23.966854-23.967878l-95.867418 0c-13.236466 0-23.966854 10.743692-23.966854 23.967878l0 95.867418C228.888526 770.042008 239.619938 780.785699 252.856403 780.785699zM522.484284 361.364211c9.923 0 17.974373-5.372358 17.974373-11.983939L540.458657 85.74385c0-6.611581-8.051373-11.983939-17.974373-11.983939s-17.974373 5.372358-17.974373 11.983939L504.50991 349.380272C504.50991 355.991854 512.561283 361.364211 522.484284 361.364211z" p-id="7062" fill="#ffffff"></path></svg>