<?xml version="1.0" standalone="no"?><!DOCTYPE svg PUBLIC "-//W3C//DTD SVG 1.1//EN" "http://www.w3.org/Graphics/SVG/1.1/DTD/svg11.dtd"><svg t="1488693748375" class="icon" style="" viewBox="0 0 1024 1024" version="1.1" xmlns="http://www.w3.org/2000/svg" p-id="35388" xmlns:xlink="http://www.w3.org/1999/xlink" width="128" height="128"><defs><style type="text/css"></style></defs><path d="M462.405465 732.3782c145.037281 0 266.601964-100.423177 299.002908-235.525178l67.36834 0c83.104743 0 150.47513-67.36834 150.47513-150.474107 0-83.10372-67.370387-150.474107-150.47513-150.474107l-69.408813 0c-13.576203-23.458271-38.925544-39.253002-67.979254-39.253002L233.422284 156.651806c-43.35953 0-78.509075 35.149545-78.509075 78.508052l0 189.728132C154.913209 594.711793 292.582685 732.3782 462.405465 732.3782zM768.164241 235.160881l56.997132 0c63.422472 0 114.835422 49.795103 114.835422 111.219057 0 61.426001-51.41295 111.221104-114.835422 111.221104l-56.997132 0C768.164241 446.851211 768.164241 235.160881 768.164241 235.160881zM927.762145 778.178315 88.937588 778.178315c-14.146185 0-25.617447 8.159844-25.617447 18.223037S85.058235 814.624389 85.058235 814.624389c32.796964 29.562293 83.454714 48.600905 140.509151 48.600905l565.568033 0c57.053414 0 107.71321-19.038612 140.507104-48.600905 0 0 21.738094-8.159844 21.738094-18.223037C953.379593 786.338159 941.9114 778.178315 927.762145 778.178315z" p-id="35389" fill="#ffb400"></path></svg>