<?xml version="1.0" standalone="no"?><!DOCTYPE svg PUBLIC "-//W3C//DTD SVG 1.1//EN" "http://www.w3.org/Graphics/SVG/1.1/DTD/svg11.dtd"><svg t="1488693664246" class="icon" style="" viewBox="0 0 1024 1024" version="1.1" xmlns="http://www.w3.org/2000/svg" p-id="33415" xmlns:xlink="http://www.w3.org/1999/xlink" width="128" height="128"><defs><style type="text/css"></style></defs><path d="M833.073576 192.163601c-139.656737 0-271.088138-117.386524-272.379551-118.577652-23.991414-22.147416-60.45079-21.977547-84.36034-0.096191-1.965771 1.782599-132.043339 118.673843-272.435833 118.673843-34.752502 0-62.927191 28.65155-62.927191 63.987337l0 193.501062c0 175.22993 102.154611 322.304613 341.570399 491.775376 21.598924 15.289218 50.285267 15.289218 71.88726 0 239.415788-169.471786 341.568353-316.545446 341.568353-491.775376L895.996674 256.150938C895.996674 220.815151 867.824031 192.163601 833.073576 192.163601zM697.30131 659.31823c-9.268084 13.378705-125.371382 25.811876-179.084725 25.640983-53.734832-0.209778-166.205393-12.291954-177.24175-20.99722-6.144954-4.848425-11.215436-9.674337-5.29561-49.359174 6.791683-45.768393 76.335572-50.686403 109.095697-71.609944 25.845645-16.500812 15.506159-28.217668 13.875009-47.50085-0.292666-3.517103-1.124614-6.570649-2.347464-9.305947-14.863523-12.380982-27.14422-29.117155-35.658128-48.718585-7.107885-2.721994-16.930601-9.360182-20.369933-29.54899-2.846838-16.724917 3.444449-24.549116 7.491625-27.747971-0.094144-2.301416-0.154519-4.613064-0.154519-6.943133 0-75.211982 33.284057-136.184659 110.354364-136.184659 74.553996 0 110.357434 60.972677 110.357434 136.184659 0 2.12029-0.041956 4.228301-0.119727 6.325056 3.988848 2.768043 11.4334 10.467399 8.360412 28.258601-3.593851 20.801768-14.07967 27.182083-21.308305 29.729092-4.507664 10.359952-10.066263 19.919678-16.505929 28.456099 0 0-12.33698 14.534018-19.070334 20.149922-0.896416 2.227738-1.617847 4.786003-2.155083 7.827269-3.167133 18.038842-10.736529 39.757492 23.306822 53.588499 30.396287 12.391215 87.605244 26.03598 98.133018 58.660005C705.135742 625.298416 706.563254 645.943618 697.30131 659.31823z" p-id="33416" fill="#47a8ef"></path></svg>