<?xml version="1.0" standalone="no"?><!DOCTYPE svg PUBLIC "-//W3C//DTD SVG 1.1//EN" "http://www.w3.org/Graphics/SVG/1.1/DTD/svg11.dtd"><svg t="1488714181177" class="icon" style="" viewBox="0 0 1024 1024" version="1.1" xmlns="http://www.w3.org/2000/svg" p-id="4321" xmlns:xlink="http://www.w3.org/1999/xlink" width="128" height="128"><defs><style type="text/css"></style></defs><path d="M562.843992 510.629793l388.228045-388.228045c6.155187-6.155187 6.155187-16.135492 0-22.290679l-26.962072-26.962072c-6.155187-6.155187-16.135492-6.155187-22.290679 0L513.591241 461.377042 125.363196 73.147974c-6.155187-6.155187-16.135492-6.155187-22.290679 0L76.109422 100.111069c-6.155187 6.155187-6.155187 16.135492 0 22.290679l388.228045 388.228045L76.109422 898.857838c-6.155187 6.155187-6.155187 16.135492 0 22.290679l26.962072 26.962072c6.155187 6.155187 16.135492 6.155187 22.290679 0L513.591241 559.882544l388.228045 388.228045c6.155187 6.155187 16.135492 6.155187 22.290679 0l26.962072-26.962072c6.155187-6.155187 6.155187-16.135492 0-22.290679L562.843992 510.629793z" p-id="4322"></path></svg>