<?xml version="1.0" standalone="no"?><!DOCTYPE svg PUBLIC "-//W3C//DTD SVG 1.1//EN" "http://www.w3.org/Graphics/SVG/1.1/DTD/svg11.dtd"><svg t="1488691487168" class="icon" style="" viewBox="0 0 1024 1024" version="1.1" xmlns="http://www.w3.org/2000/svg" p-id="9425" xmlns:xlink="http://www.w3.org/1999/xlink" width="32" height="32"><defs><style type="text/css"></style></defs><path d="M902.31252 628.54639c-0.060375 50.720172-22.48306 92.495624-57.83829 125.069507-89.706091 82.639139-194.238866 149.051711-255.392668 180.902116-73.774237 38.422078-91.753727 30.601972-166.500105-6.42841-60.443627-29.939893-144.923694-84.825944-228.467435-165.093059-46.090734-44.280506-69.190849-76.014254-68.577888-142.826939 0.610914-66.558905-0.234337-291.89707 0-357.23824 0.268106-74.906014 39.126112-115.300003 111.62838-135.291312 85.08484-23.454178 163.398464-49.363268 250.727415-59.899228 44.86379-5.418406 101.528348 9.532097 147.511635 17.809621 54.135968 9.740852 108.756983 27.226085 161.635307 42.459021 65.529459 18.877953 104.951307 58.060347 105.273648 125.981273C902.902968 377.553938 902.461923 504.978073 902.31252 628.54639zM813.220413 289.721521c-0.270153-44.384883-15.291265-65.340147-60.46-75.010391-82.779332-17.72878-196.047048-54.317093-245.935272-51.30141-86.796832 5.232165-144.181797 27.933189-229.377154 51.213405-47.001477 12.8384-62.60178 35.127032-62.60178 84.031858 0 138.116661 0 330.442968 0 330.442968s-9.742898 29.79356 70.821999 88.74623c85.557608 67.340711 127.993093 96.719832 180.99933 120.452349 36.139082 16.179494 56.92857 15.802918 87.554078 5.140067 51.207265-17.821901 105.934704-57.624419 205.399043-140.101875 47.641043-33.670867 53.597709-74.238818 53.597709-74.238818S813.777091 381.405663 813.220413 289.721521zM679.255305 656.169517 348.810291 656.169517c-14.797008 0-26.793226-11.997242-26.793226-26.796296 0-14.799054 11.996219-26.790156 26.793226-26.790156l44.655036 0L393.465327 468.620004c0-14.799054 11.996219-26.796296 26.793226-26.796296 14.798031 0 26.793226 11.998265 26.793226 26.796296l0 133.963061 44.655036 0L491.706815 379.309932 384.53391 379.309932c-14.797008 0-26.793226-11.998265-26.793226-26.79118 0-14.799054 11.996219-26.795273 26.793226-26.795273l258.997776 0c14.798031 0 26.793226 11.997242 26.793226 26.795273 0 14.792914-11.995195 26.79118-26.793226 26.79118l-98.240465 0 0 62.513776 89.309048 0c14.798031 0 26.793226 11.998265 26.793226 26.796296 0 14.799054-11.995195 26.790156-26.793226 26.790156l-89.309048 0 0 107.172905 133.964084 0c14.798031 0 26.793226 11.992125 26.793226 26.790156C706.048531 644.173299 694.053336 656.169517 679.255305 656.169517z" p-id="9426" fill="#ffffff"></path></svg>