<?xml version="1.0" standalone="no"?><!DOCTYPE svg PUBLIC "-//W3C//DTD SVG 1.1//EN" "http://www.w3.org/Graphics/SVG/1.1/DTD/svg11.dtd"><svg t="1488691400364" class="icon" style="" viewBox="0 0 1024 1024" version="1.1" xmlns="http://www.w3.org/2000/svg" p-id="8699" xmlns:xlink="http://www.w3.org/1999/xlink" width="32" height="32"><defs><style type="text/css"></style></defs><path d="M651.272997 261.84359c42.645263 27.856441 85.6231 55.921637 129.741923 84.73794-13.129019 14.004969-23.777543 26.762527-36.028565 37.776372-5.332449 4.786003-13.881149 8.126075-21.101597 8.368598-15.368012 0.5137-30.968315-3.019777-46.179762-1.666966-7.263427 0.64059-13.855566 8.644891-20.75265 13.310144 4.26207 4.686742 37.805024 25.76378 48.835242 33.646308 8.018627 5.730515 15.362896 13.972223 19.803022 22.700001 8.478092 16.655332 21.800515 51.753711 21.800515 51.753711s23.549346-10.56052 23.170722-26.266224c-0.324388-13.491269 0.949628-27.066449 2.314719-40.524972 0.49221-4.863774 1.89721-11.183713 5.288446-13.933337 14.57188-11.824303 30.036084-22.566972 46.664809-34.794457 3.950985 6.475482 7.28594 11.178597 9.853415 16.263405 17.813714 35.275411 35.229362 70.75446 53.40942 105.847723 2.979868 5.752004 8.524141 13.216 13.879102 14.126742 11.678994 1.9934 26.575262-15.252379 25.099654-27.41949-6.231935-51.417043-12.481266-102.834086-19.476587-154.145729-1.866511-13.690814-0.657986-24.63712 10.731412-34.358529 62.808488-53.602825 80.306001-118.582769 11.129478-87.420025-21.349237 9.622148-41.34157 22.744004-60.502979 36.340673-9.711176 6.895037-17.683754 8.970302-29.190833 6.02318-47.847751-12.282744-95.957469-23.555485-143.933133-35.352159C666.165172 229.560326 662.402475 231.459582 651.272997 261.84359zM684.420955 550.432311c3.801583-2.50096 6.404873-8.794293 7.792477-12.028964 17.627473-41.154305-44.61001-104.026238-81.564667-79.979566-63.332421 55.435567-120.068609 111.379717-192.728466 151.319357-133.934408 73.622788-278.012851 91.354638-273.465279 91.40478-31.565926 1.892093-39.662325-18.885116-13.809517-37.359886 26.672476-19.062148-56.112995 9.296737-65.415872 51.891857-0.756223 9.338692 5.724375 51.635007 105.416911 45.382607 59.316967-5.53097 151.197584-19.696598 207.27374-39.630602C498.901681 678.428473 574.183248 637.621069 684.420955 550.432311zM585.916477 101.366665C587.024717 101.488439 586.942853 101.475136 585.916477 101.366665L585.916477 101.366665zM581.050656 100.819197c1.171686 0.13303 2.323928 0.26913 3.474125 0.404206 0.569982 0.058328 1.035586 0.106424 1.390673 0.143263C585.054853 101.272521 583.478961 101.097536 581.050656 100.819197zM931.447071 544.865525c-8.706289 1.215688-16.946974 1.500167-23.685445 27.700899-2.882654 11.208273-3.750417 19.59222-19.976984 49.671283-16.263405 18.527982-28.031427 24.156166-53.942563 15.747659-92.792383-79.085196-191.05843-11.515265-143.301753 95.066169 44.457538 97.827049-88.828095 143.772474-101.414761 37.604456 15.98302-143.182027-123.32477-104.655572-155.931399-26.442232-37.398772 65.325821-54.036707 97.5395-109.665679 73.548086-22.099321-14.645558-42.563398-31.561833-60.907185-50.564629-20.321838 4.939499-42.915415 7.713682-66.747193 7.713682-3.045359 0-6.065136-0.055259-9.06854-0.143263 8.916067 12.311397 35.427884 44.820811 46.505173 54.066383C310.301232 904.663054 415.892105 951.503872 532.502963 951.503872c185.346335 0 343.030657-118.185726 401.970024-283.282878l-0.358157 0c9.311063-25.355481 16.338107-51.798736 20.653389-79.145571l4.757351-30.685883C959.52557 558.38954 951.850773 542.016641 931.447071 544.865525zM153.565515 646.146233c35.757388 0.592494 24.15412-59.359946 26.754341-82.386382 9.964956-72.241324 65.151859-154.629753 175.174672-87.533612-9.100262-4.897543 49.39499 41.815361 103.359043 28.895097 55.782467-13.359262 88.330768-58.81964 86.249363-161.714102 0.293689-82.84994 85.678358-137.568169 131.599224-130.816394 0 0 46.654576 4.671393 50.42546-34.850739 2.551102-26.737968-9.694803-37.709857-9.694803-37.709857-12.538571-6.000668-38.572504-27.662013-132.907009-38.807864-7.644097-0.777713-33.640168-3.258207-52.522214-3.236718-0.246617 0-0.491187-0.010233-0.738827-0.010233-236.767472 0-428.706969 190.242855-428.706969 424.925852C102.557794 587.252915 106.761536 645.37466 153.565515 646.146233z" p-id="8700" fill="#ffffff"></path></svg>