<?xml version="1.0" standalone="no"?><!DOCTYPE svg PUBLIC "-//W3C//DTD SVG 1.1//EN" "http://www.w3.org/Graphics/SVG/1.1/DTD/svg11.dtd"><svg t="1488689440627" class="icon" style="" viewBox="0 0 1024 1024" version="1.1" xmlns="http://www.w3.org/2000/svg" p-id="3329" xmlns:xlink="http://www.w3.org/1999/xlink" width="200" height="200"><defs><style type="text/css"></style></defs><path d="M870.492814 743.110635 560.221258 483.665675l-0.098237 0.101307c-11.137665-11.007705-26.480094-17.755386-43.376926-17.559934-33.542954 0.38681-60.422138 27.894304-60.034305 61.438281 0.197498 17.084097 7.477298 32.379455 18.956747 43.283806l271.290753 298.601772 0.309038-0.316202c16.105816 15.635095 38.133505 25.176402 62.349023 24.898063 48.638767-0.562818 87.612407-40.447201 87.053682-89.085968-0.281409-24.217564-10.329253-46.01808-26.332738-61.757552L870.492814 743.110635z" p-id="3330" fill="#ffffff"></path><path d="M511.545652 246.579955c-142.889361 0-259.141038 116.251677-259.141038 259.141038s116.251677 259.126712 259.141038 259.126712l0-0.220011c15.994276-0.564865 28.814256-13.621229 28.818349-29.755698 0.004093-16.140609-12.817933-29.207206-28.818349-29.773094l0-0.101307c-109.895923 0-199.290929-89.395006-199.290929-199.276602 0-109.895923 89.395006-199.290929 199.290929-199.290929 109.881596 0 199.276602 89.395006 199.276602 199.290929 0 5.435803-0.218988 10.841929-0.642636 16.189727l0.158612 0.01228c-0.021489 0.119727-0.055259 0.23536-0.063445 0.361227-1.238201 16.449647 11.093662 30.788214 27.545356 32.026414 16.45067 1.237177 30.789237-11.093662 32.027437-27.54331 0.00921-0.121773-0.004093-0.237407-0.00921-0.356111 0.553609-6.822382 0.835018-13.726629 0.835018-20.691251C770.672364 362.831632 654.435013 246.579955 511.545652 246.579955z" p-id="3331" fill="#ffffff"></path><path d="M512.085958 64.195068c-1.505283 0-3.039219 0-4.558829 0.014326-119.481232 1.198292-231.334739 48.847521-314.973648 134.181025C108.929922 283.7229 63.530942 396.527059 64.729234 516.00829c1.198292 119.466905 48.847521 231.320413 134.181025 314.958298 84.237543 82.557274 195.214077 127.853923 313.000714 127.853923 1.51961 0 3.068895 0 4.602831-0.014326 37.859259-0.3776 75.455529-5.522784 111.738897-15.247262 0.140193-0.028653 0.279363-0.029676 0.420579-0.068562 15.975856-4.288676 25.448602-20.715811 21.159926-36.69269-4.288676-15.975856-20.715811-25.450648-36.690644-21.162995-0.025583 0.00614-0.046049 0.01842-0.069585 0.026606-31.524994 8.492418-64.21758 12.95915-97.172133 13.294794-214.049051 2.571568-389.186883-169.921018-391.320477-383.561769-1.037632-103.496166 38.282908-201.190185 110.728894-275.111778 72.430636-73.907267 169.33671-115.185392 272.832875-116.223025 1.314948-0.014326 2.615571-0.014326 3.930519-0.014326 211.857129 0 385.27069 171.251316 387.389958 383.576095 0.36532 35.088146-3.978614 69.88465-12.876262 103.44807l-0.020466-0.005117c-0.044002 0.152473-0.125867 0.284479-0.165776 0.441045-4.270257 15.984043 5.226025 32.405037 21.211091 36.676317 15.987113 4.27128 32.407084-5.225001 36.677341-21.209044 0.027629-0.101307 0.036839-0.201591 0.049119-0.300852l0.027629 0.007163c10.330276-38.838563 15.356756-79.108732 14.947434-119.671567C956.856787 261.892709 756.673535 64.195068 512.085958 64.195068z" p-id="3332" fill="#ffffff"></path></svg>