<?xml version="1.0" standalone="no"?><!DOCTYPE svg PUBLIC "-//W3C//DTD SVG 1.1//EN" "http://www.w3.org/Graphics/SVG/1.1/DTD/svg11.dtd"><svg t="1488691612847" class="icon" style="" viewBox="0 0 1024 1024" version="1.1" xmlns="http://www.w3.org/2000/svg" p-id="13290" xmlns:xlink="http://www.w3.org/1999/xlink" width="32" height="32"><defs><style type="text/css"></style></defs><path d="M926.255839 336.977801c-22.645766-53.55166-55.057967-101.627608-96.337115-142.903687-41.271986-41.271986-89.354074-73.683163-142.893454-96.333022-55.461149-23.461341-114.348328-35.352159-175.026292-35.352159-60.680011 0-119.563096 11.890818-175.024246 35.352159-53.54552 22.649859-101.623515 55.05592-142.899594 96.333022-41.269939 41.276079-73.687256 89.352027-96.333022 142.903687-23.461341 55.457056-35.352159 114.350374-35.352159 175.026292 0 60.675918 11.894911 119.563096 35.352159 175.022199 22.645766 53.535287 55.06206 101.623515 96.333022 142.895501 41.276079 41.276079 89.354074 73.691349 142.899594 96.339162 55.461149 23.459295 114.344235 35.350113 175.024246 35.350113 60.677964 0 119.565143-11.894911 175.026292-35.350113 53.53938-22.647813 101.621469-55.06206 142.893454-96.339162 41.278125-41.271986 73.691349-89.360214 96.337115-142.895501 23.457248-55.459103 35.354206-114.346281 35.354206-175.022199C961.610044 451.328175 949.713087 392.434857 926.255839 336.977801zM692.463118 679.006641c-43.140543 43.13031-129.377626 116.539226-180.663686 116.539226-51.293223 0-134.430712-70.716598-180.175569-116.466572-45.74895-45.74281-40.127929-383.867738-40.127929-383.867738s114.64304-31.274284 227.03276-31.274284c108.10923 0 214.152405 31.274284 214.152405 31.274284S735.601614 635.866099 692.463118 679.006641zM622.520139 374.130979l-45.750997 0-63.513546 108.826568-65.034179-108.826568-45.763276 0 64.757886 108.826568-75.383898 0 0 32.694633 91.12644 0 7.068999 14.671141 0 29.098735-98.195439 0 0 32.69054 98.195439 0 0 65.702398 44.085054 0 0-65.702398 98.054223 0 0-32.69054-98.054223 0 0-29.098735 7.600095-14.671141 90.454128 0 0-32.694633-75.394131 0L622.520139 374.130979z" p-id="13291" fill="#ffffff"></path></svg>