<?xml version="1.0" standalone="no"?><!DOCTYPE svg PUBLIC "-//W3C//DTD SVG 1.1//EN" "http://www.w3.org/Graphics/SVG/1.1/DTD/svg11.dtd"><svg t="1488691807628" class="icon" style="" viewBox="0 0 1024 1024" version="1.1" xmlns="http://www.w3.org/2000/svg" p-id="21246" xmlns:xlink="http://www.w3.org/1999/xlink" width="32" height="32"><defs><style type="text/css"></style></defs><path d="M923.063635 425.929716 598.071819 100.94711c-47.545876-47.537689-124.612089-47.537689-172.141592 0L100.922039 425.929716c-47.512107 47.537689-47.512107 124.613112 0 172.150802l325.008188 324.96521c47.52848 47.545876 124.595716 47.545876 172.141592 0l324.991816-324.96521C970.593138 550.542828 970.593138 473.467405 923.063635 425.929716zM815.38317 563.694359c0 19.908422-16.144702 36.071543-36.053124 36.071543L581.979306 599.765903l0 198.137663c0 19.908422-16.145725 36.053124-36.053124 36.053124L461.453279 833.956689c-19.925818 0-36.07052-16.144702-36.07052-36.053124L425.382758 599.765903 227.58688 599.765903c-19.925818 0-36.07052-16.163121-36.07052-36.071543l0-83.650165c0-19.925818 16.144702-36.07052 36.07052-36.07052l197.795878 0L425.382758 247.613494c0-19.924795 16.144702-36.078707 36.07052-36.078707l84.47188 0c19.907399 0 36.053124 16.153912 36.053124 36.078707l0 196.36018 197.35074 0c19.908422 0 36.053124 16.144702 36.053124 36.07052L815.382147 563.694359z" p-id="21247" fill="#ffffff"></path></svg>