<?xml version="1.0" standalone="no"?><!DOCTYPE svg PUBLIC "-//W3C//DTD SVG 1.1//EN" "http://www.w3.org/Graphics/SVG/1.1/DTD/svg11.dtd"><svg t="1488691779962" class="icon" style="" viewBox="0 0 1024 1024" version="1.1" xmlns="http://www.w3.org/2000/svg" p-id="20548" xmlns:xlink="http://www.w3.org/1999/xlink" width="32" height="32"><defs><style type="text/css"></style></defs><path d="M64.767096 563.884694c0 0 88.868003-54.892191 142.524041-70.829162s125.756145-8.853645 171.028235 37.184901 88.868003 69.057819 117.372198 77.911464c28.504194 8.853645 63.71616 8.853645 78.806857 15.935947 15.090697 7.083326 50.302663 69.057819-8.383948 88.535429-58.68661 19.47761-154.261363-3.541663-184.442756-10.623965-30.181393-7.083326-55.332213-17.70729-60.362786-19.47761-5.030573-1.77032-25.15082 14.165628 72.100108 63.745836 70.913073 30.261211 158.400636 16.447601 186.875155 4.13825 33.215496-14.359033 63.444984-48.613184 66.174142-77.787644 2.656503-28.40084-3.213181-83.943854-78.666664-94.567819-26.39209-4.229325-37.307697-4.892427-37.307697-4.892427s67.48909-50.000787 121.145128-83.644025c26.828019-21.248953 88.291882-5.207605 134.140093 0 23.474644 3.541663 73.729212 15.312754 103.9587 15.936971 35.753295 0.737804 80.484056 28.331255 67.069535 58.433854-13.413498 30.102598-188.906417 182.334745-216.300324 205.403137-21.970384 18.500353-122.402771 115.096365-169.352059 129.261992-46.949288 14.165628-73.777307 0-124.078946-17.70729s-104.483656-64.775282-161.493068-68.316945c-57.009412-3.541663-84.98865 4.571109-95.049796 18.736736C180.462095 845.428975 64.767096 563.884694 64.767096 563.884694zM364.41264 221.845621 364.41264 270.940782 474.786447 270.940782 474.786447 325.59045 364.41264 325.59045 364.41264 374.686634 474.786447 374.686634 474.786447 468.87276 537.26543 468.87276 537.26543 374.686634 648.736221 374.686634 648.736221 325.59045 537.26543 325.59045 537.26543 270.940782 648.736221 270.940782 648.736221 221.845621 561.915853 221.845621 644.181485 119.667473 575.697741 119.667473 507.974313 210.019271 440.764586 120.588449 372.337123 120.588449 450.376501 221.845621Z" p-id="20549" fill="#ffffff"></path></svg>