<?xml version="1.0" standalone="no"?><!DOCTYPE svg PUBLIC "-//W3C//DTD SVG 1.1//EN" "http://www.w3.org/Graphics/SVG/1.1/DTD/svg11.dtd"><svg t="1488691753521" class="icon" style="" viewBox="0 0 1024 1024" version="1.1" xmlns="http://www.w3.org/2000/svg" p-id="19836" xmlns:xlink="http://www.w3.org/1999/xlink" width="32" height="32"><defs><style type="text/css"></style></defs><path d="M512 11.377778c-275.342222 0-500.622222 225.28-500.622222 500.622222 0 245.76 177.493333 455.111111 420.977778 493.795556h2.275555c4.551111 0 11.377778-4.551111 11.377778-9.102223 0-6.826667-2.275556-11.377778-9.102222-13.653333-232.106667-38.684444-400.497778-236.657778-400.497778-471.04 0-263.964444 213.902222-477.866667 477.866667-477.866667s477.866667 213.902222 477.866666 477.866667c0 131.982222-52.337778 257.137778-150.186666 348.16-4.551111 4.551111-4.551111 11.377778 0 15.928889 4.551111 4.551111 11.377778 4.551111 15.928888 0 102.4-95.573333 157.013333-225.28 157.013334-364.088889-2.275556-275.342222-227.555556-500.622222-502.897778-500.622222z" fill="#ffffff" p-id="19837"></path><path d="M512 197.973333c-172.942222 0-314.026667 141.084444-314.026667 314.026667 0 95.573333 43.235556 186.595556 118.328889 245.76 2.275556 2.275556 4.551111 2.275556 6.826667 2.275556 2.275556 0 6.826667-2.275556 9.102222-4.551112 4.551111-4.551111 2.275556-11.377778-2.275555-15.928888-70.542222-54.613333-109.226667-138.808889-109.226667-227.555556 0-161.564444 129.706667-291.271111 291.271111-291.271111 161.564444 0 291.271111 129.706667 291.271111 291.271111 0 29.582222-4.551111 59.164444-13.653333 88.746667-2.275556 6.826667 2.275556 11.377778 6.826666 13.653333 6.826667 2.275556 11.377778-2.275556 13.653334-6.826667 9.102222-29.582222 13.653333-61.44 13.653333-95.573333 2.275556-172.942222-138.808889-314.026667-311.751111-314.026667z" fill="#ffffff" p-id="19838"></path><path d="M612.124444 571.164444c6.826667 2.275556 11.377778 0 15.928889-4.551111 6.826667-15.928889 11.377778-34.133333 11.377778-54.613333 0-70.542222-56.888889-127.431111-127.431111-127.431111s-127.431111 56.888889-127.431111 127.431111c0 36.408889 15.928889 72.817778 43.235555 95.573333 2.275556 2.275556 4.551111 2.275556 6.826667 2.275556 2.275556 0 6.826667-2.275556 9.102222-4.551111 4.551111-4.551111 4.551111-11.377778 0-15.928889-22.755556-20.48-36.408889-47.786667-36.408889-79.644445 0-56.888889 47.786667-104.675556 104.675556-104.675555s104.675556 47.786667 104.675556 104.675555c0 15.928889-2.275556 29.582222-9.102223 43.235556-2.275556 9.102222 0 15.928889 4.551111 18.204444z" fill="#ffffff" p-id="19839"></path><path d="M810.097778 696.32c0-2.275556-11.377778-45.511111-50.062222-45.511111-13.653333 0-22.755556 4.551111-31.857778 11.377778-6.826667-18.204444-18.204444-38.684444-43.235556-40.96-20.48-2.275556-34.133333 9.102222-43.235555 22.755555-2.275556-2.275556-4.551111-6.826667-6.826667-9.102222-9.102222-9.102222-20.48-13.653333-34.133333-13.653333-11.377778 0-22.755556 2.275556-29.582223 9.102222v-93.297778s0-25.031111-18.204444-43.235555c-9.102222-9.102222-22.755556-15.928889-40.96-15.928889-45.511111 0-59.164444 38.684444-59.164444 59.164444v273.066667l-22.755556-25.031111c-2.275556-2.275556-20.48-25.031111-45.511111-29.582223-11.377778 0-20.48 2.275556-29.582222 9.102223-27.306667 22.755556-9.102222 61.44 4.551111 79.644444l93.297778 116.053333h2.275555c-2.275556 4.551111-4.551111 9.102222-4.551111 15.928889 0 18.204444 15.928889 34.133333 34.133333 34.133334h257.137778c18.204444 0 34.133333-15.928889 34.133333-34.133334 0-4.551111-2.275556-11.377778-4.551111-15.928889l2.275556-2.275555 31.857778-61.44c0-2.275556 2.275556-4.551111 2.275555-4.551111l-2.275555-195.697778h4.551111z m-63.715556 293.546667h-257.137778c-6.826667 0-11.377778-4.551111-11.377777-11.377778s4.551111-11.377778 11.377777-11.377778h257.137778c6.826667 0 11.377778 4.551111 11.377778 11.377778s-6.826667 11.377778-11.377778 11.377778z m15.928889-45.511111h-291.271111l-88.746667-111.502223s-25.031111-34.133333-9.102222-47.786666c4.551111-2.275556 6.826667-4.551111 11.377778-4.551111 11.377778 2.275556 25.031111 15.928889 29.582222 20.48l43.235556 45.511111c2.275556 4.551111 9.102222 4.551111 11.377777 2.275555 4.551111-2.275556 6.826667-6.826667 6.826667-11.377778v-302.648888c0-4.551111 0-36.408889 36.408889-36.408889 34.133333 0 34.133333 29.582222 34.133333 36.408889v138.808888c0 6.826667 4.551111 11.377778 11.377778 11.377778s11.377778-4.551111 11.377778-11.377778c0-2.275556 2.275556-34.133333 29.582222-34.133333 6.826667 0 13.653333 2.275556 18.204445 6.826667 6.826667 9.102222 9.102222 25.031111 9.102222 29.582222 0 6.826667 4.551111 11.377778 9.102222 11.377778 6.826667 0 11.377778-2.275556 13.653333-9.102222 0 0 11.377778-40.96 34.133334-38.684445 25.031111 2.275556 29.582222 45.511111 29.582222 45.511111 0 4.551111 4.551111 9.102222 11.377778 11.377778 6.826667 0 11.377778-2.275556 11.377777-9.102222 0-2.275556 4.551111-18.204444 25.031112-18.204445 18.204444 0 25.031111 22.755556 27.306666 27.306667l2.275556 191.146667-27.306667 56.888889z" fill="#ffffff" p-id="19840"></path></svg>