<?xml version="1.0" standalone="no"?><!DOCTYPE svg PUBLIC "-//W3C//DTD SVG 1.1//EN" "http://www.w3.org/Graphics/SVG/1.1/DTD/svg11.dtd"><svg t="1488691823739" class="icon" style="" viewBox="0 0 1024 1024" version="1.1" xmlns="http://www.w3.org/2000/svg" p-id="21966" xmlns:xlink="http://www.w3.org/1999/xlink" width="32" height="32"><defs><style type="text/css"></style></defs><path d="M787.198248 372.346333c-68.629054 0-124.244722 55.759955-124.244722 124.535341 0 57.420781 38.986943 105.208157 91.727121 119.600959 0.194428 22.049179 0.641613 41.34771 0.641613 83.395362 0 126.319987-87.005586 177.216167-178.382737 177.216167-82.771145 0-178.382737-50.895157-178.382737-177.216167 0-47.080272 0.563842-65.609277 0.718361-91.436502 78.283947-15.015995 210.435757-67.630307 210.435757-252.635881 0-26.282596-0.039909-172.622546-0.039909-243.496733-0.01842-16.064884-21.386076-33.635051-35.469839-34.178427-33.897018-1.310855-74.107835-0.698918-96.446609-0.165776-8.547677-7.798617-19.814278-12.674671-32.30373-12.674671-26.535353 0-48.058552 21.51399-48.058552 48.077995 0 26.544563 21.523199 48.067762 48.058552 48.067762 10.217712 0 19.638269-3.224438 27.408233-8.654101 10.335393 0.329505 26.438139 0.699941 48.077995 0.786922 13.228279 0.059352 12.218276 10.489912 12.31549 24.145933 0.36839 61.897745 0.174985 122.787534 0.174985 178.041976 0 126.459157-98.700953 177.227424-172.282808 177.227424-69.50398 0-172.282808-50.768267-172.282808-177.227424 0-55.254441-0.194428-116.14423 0.173962-178.041976 0.077771-13.656021-0.912789-24.087605 12.31549-24.145933 15.852036-0.058328 28.730345-0.281409 38.598086-0.524956 7.692193 5.293563 17.016559 8.42181 27.060309 8.42181 26.456558 0 47.90301-21.446451 47.90301-47.8938 0-26.447349-21.446451-47.90301-47.90301-47.90301-12.141528 0-23.077601 4.663206-31.508621 12.102642-23.155373-0.456395-57.674561-0.786922-87.413885 0.35918-14.08274 0.544399-35.45142 18.113543-35.470863 34.178427 0 70.873164-0.038886 217.214137-0.038886 243.496733 0 185.851848 132.460848 238.124376 210.608695 252.857938-0.019443 25.341155-0.038886 67.775616-0.038886 88.872097 0 262.708284 240.447281 261.173324 256.802784 261.173324s250.779603 1.534959 250.779603-261.173324c0-19.900236-0.019443-58.626235-0.037862-84.23652l3.671623-1.291412c45.182039-18.629289 77.060073-63.105247 77.060073-115.126041C911.422504 428.106288 855.788415 372.346333 787.198248 372.346333zM789.994943 556.904723c-31.779797 0-57.498552-25.746384-57.498552-57.506738 0-31.761378 25.719778-57.508785 57.498552-57.508785 31.760354 0 57.498552 25.748431 57.498552 57.508785C847.493495 531.158339 821.755298 556.904723 789.994943 556.904723z" p-id="21967" fill="#ffffff"></path></svg>