<?xml version="1.0" standalone="no"?><!DOCTYPE svg PUBLIC "-//W3C//DTD SVG 1.1//EN" "http://www.w3.org/Graphics/SVG/1.1/DTD/svg11.dtd"><svg t="1488691856598" class="icon" style="" viewBox="0 0 1024 1024" version="1.1" xmlns="http://www.w3.org/2000/svg" p-id="23376" xmlns:xlink="http://www.w3.org/1999/xlink" width="32" height="32"><defs><style type="text/css"></style></defs><path d="M816.822962 958.709995 192.840518 958.709995c-38.092573 0-64.888869-34.716686-64.888869-75.523067L127.951649 150.340053c0-43.057655 31.041994-85.050048 69.114101-85.050048l483.838613 0c92.059696 81.46643 146.205896 133.8945 215.141942 201.537086l0 617.041358C896.047328 923.244248 861.943602 958.709995 816.822962 958.709995zM211.24468 223.215828l0 590.640058c0 32.691563 26.659173 61.502749 52.980655 61.502749l484.254076 0c31.673373 0 64.690348-31.06246 64.690348-60.928674l0-499.29156L705.371614 315.1384c-34.380018 0-59.103096-25.514093-59.103096-59.902298 0 0 0.316202-64.158229 0.078795-106.554828L267.68104 148.681274C234.328421 148.681274 211.24468 177.176258 211.24468 223.215828zM505.117754 355.865987l-65.086367 0 0 66.172095c0 9.280364-7.503904 16.794501-16.784268 16.794501l-29.580712 0c-9.281387 0-16.785292-7.514137-16.785292-16.794501l0-66.172095-67.297732 0c-9.240455 0-16.764825-7.514137-16.764825-16.775059l0-28.919656c0-9.281387 7.52437-16.804734 16.764825-16.804734l67.297732 0 0-65.332984c0-9.280364 7.503904-16.794501 16.785292-16.794501l29.580712 0c9.280364 0 16.784268 7.514137 16.784268 16.794501l0 65.332984 65.086367 0c9.280364 0 16.784268 7.523347 16.784268 16.804734l0 28.919656C521.903046 348.351849 514.399141 355.865987 505.117754 355.865987zM308.498678 542.889521l401.078725 0c11.491729 0 20.774139 7.888667 20.774139 17.634636l0 26.836205c0 9.744945-9.281387 17.624403-20.774139 17.624403L308.498678 604.984764c-11.434423 0-20.754696-7.878434-20.754696-17.624403l0-26.836205C287.742958 550.778188 297.064254 542.889521 308.498678 542.889521zM308.498678 688.947038l400.446321 0c11.452843 0 20.774139 7.878434 20.774139 17.624403l0 26.836205c0 9.725502-9.320273 17.624403-20.774139 17.624403L308.498678 751.032048c-11.434423 0-20.754696-7.898901-20.754696-17.624403l0-26.836205C287.742958 696.825472 297.064254 688.947038 308.498678 688.947038z" p-id="23377" fill="#ffffff"></path></svg>