<?xml version="1.0" standalone="no"?><!DOCTYPE svg PUBLIC "-//W3C//DTD SVG 1.1//EN" "http://www.w3.org/Graphics/SVG/1.1/DTD/svg11.dtd"><svg t="1488693715397" class="icon" style="" viewBox="0 0 1024 1024" version="1.1" xmlns="http://www.w3.org/2000/svg" p-id="34133" xmlns:xlink="http://www.w3.org/1999/xlink" width="128" height="128"><defs><style type="text/css"></style></defs><path d="M526.175861 48.288796c-246.963695 0-447.165366 200.202695-447.165366 447.163319s200.201671 447.162296 447.165366 447.162296c246.961648 0 447.163319-200.201671 447.163319-447.162296S773.138532 48.288796 526.175861 48.288796zM853.883531 611.92585c-0.322341 9.039887-7.479345 18.218944-12.768815 26.653033-6.183839 9.855462-13.777795 18.860557-20.450774 28.441772-8.481162 12.170181-20.542872 39.503712-23.484877 42.442648-3.27151 3.26537-7.603165 5.809309-11.897981 7.753591-39.986713 18.10024-67.414389 50.476625-92.342128 83.501786-25.251104 33.452903-53.455469 61.907978-90.024339 83.048461-8.750291 5.057179-14.8318 14.507412-22.200628 21.87931-2.695389 2.693342-5.327332 5.538133-8.405437 7.761778-8.870018 6.415107-18.228153 3.121084-18.171871-7.535627 0.112564-20.216437 0.162706-40.771589 3.813862-60.562331 6.53995-35.461653 16.08228-70.394257 23.644513-105.695251 3.130294-14.609743 5.009084-29.54899 6.316869-44.429909 1.156336-13.170974-6.675026-22.379707-17.015535-29.741371-0.76748-0.546446-1.635243-1.038656-2.535753-1.313925-30.352285-9.31925-45.023426-34.07405-60.619636-58.168818-7.391341-11.414981-14.380522-22.683628-28.120454-29.586852-11.895935-5.973038-11.727089-21.236674-16.677844-32.573883-10.667967-24.440645 7.622608-38.292118 19.883863-54.151317 9.099239-11.773138 19.285229-22.779819 29.447682-33.724079 5.043876-5.434779 3.52222-9.254781-1.188058-13.45443-9.664104-8.613168-24.321942-8.328689-34.633798 0.099261-1.959631 1.603521-6.548136 1.925862-8.970302 0.830925-5.146207-2.330068-9.445116-6.380314-14.491039-8.998955-7.355525-3.817955-15.180747-6.770194-22.557762-10.555403-2.982938-1.527796-5.857405-3.87833-7.840572-6.528694-6.02625-8.04421-11.592013-16.413831-17.334807-24.661679-4.715395-6.77224-11.397584-11.005658-19.542078-8.857738-8.162914 2.15099-14.68956 0.320295-20.48045-4.458545-9.924024-8.18338-20.733207-10.924817-33.719986-9.118682-18.428721 2.563382-34.896788-5.259794-47.178509-16.717753-8.18338-7.632841-10.69662-21.192671-15.352663-32.256658-2.354628-5.591345-3.838422-11.535731-6.172583-18.727527-8.800433 7.559163-14.742772 3.079128-20.50194-1.486864-3.983731-3.15997-7.368828-7.105838-11.56643-9.92914-18.298761-12.32163-16.023952-7.249101-17.267269-6.17463-29.818119-4.465708-16.331967-47.974641 9.611915-72.999594 81.617879-78.722946 144.958486-103.155405 226.774887-119.102608 101.884458-19.85521 174.049035-4.16281 225.873354 20.324908-10.30367 8.390088-21.287839 13.290701-33.534767 13.577227-21.315468 0.50449-40.772612 7.061836-59.69559 15.691377-6.025227 2.744507-13.480013 5.427616-16.766872 10.368138-6.880711 10.342556-17.480116 13.764492-27.466562 19.164478-9.898441 5.354961-19.832697 11.570523-27.65485 19.408025-7.66968 7.676843-11.212366 19.444864-19.186991 26.646893-18.132986 16.368806-27.874861 34.513048-21.849634 59.004859 0.556679 2.26867-1.916653 5.258771-2.986007 7.916297-2.533706-1.612731-5.849218-2.688225-7.463995-4.931313-6.231935-8.664334-12.485359-17.396205-17.655102-26.678616-5.273097-9.463536-13.216-10.799974-22.687722-9.335622-19.185968 2.959402-29.813003 15.057951-36.876885 31.849382-3.77907 8.989745-3.28072 16.09149 3.762697 22.954805 17.48114 17.039072 35.026748 34.030048 52.057633 51.490721 3.449565 3.535523 7.439436 9.625218 6.564509 13.56904-2.952238 13.280468 1.221828 23.846104 8.768711 34.212196 2.52552 3.469008 3.02694 8.391111 5.671163 11.728112 2.323928 2.923586 6.581905 6.685259 9.582239 6.364965 8.770757-0.932232 17.262152-4.149507 26.015513-5.598508 4.435009-0.731664 11.594059-1.305739 13.356193 1.042749 5.227048 6.959505 9.713222 3.596921 14.728446 1.086751 5.956665-2.976798 11.531638-7.063883 17.809621-8.953929 7.362688-2.215458 15.405875-3.993964 22.980387-3.497661 23.545252 1.547239 46.963615 4.951779 70.51296 6.317892 22.429849 1.295506 42.558281 6.281053 55.247278 26.058492 5.027503 7.839549 12.374842 10.310833 20.62883 11.766998 7.208169 1.272993 14.482853 2.339278 21.771863 2.993171 12.465916 1.112334 21.672602 6.540973 29.350468 16.490579 8.612145 11.163247 17.84646 22.405289 28.880771 31.111578 15.33629 12.092409 34.453696 17.200754 53.769624 20.686135 11.003612 1.988284 21.044292 5.717212 27.590382 15.21247 5.485945 7.960299 10.619872 16.149818 15.905248 24.238031 0.030699 0.627287 0.062422 1.258667 0.092098 1.885953-7.710612 10.610662-15.258519 21.340027-23.183002 31.792077C858.486362 595.752496 854.239642 601.911776 853.883531 611.92585z" p-id="34134" fill="#ff6600"></path><path d="M526.175861 48.288796c-246.963695 0-447.165366 200.202695-447.165366 447.163319s200.201671 447.162296 447.165366 447.162296c246.961648 0 447.163319-200.201671 447.163319-447.162296S773.138532 48.288796 526.175861 48.288796zM853.883531 611.92585c-0.322341 9.039887-7.479345 18.218944-12.768815 26.653033-6.183839 9.855462-13.777795 18.860557-20.450774 28.441772-8.481162 12.170181-20.542872 39.503712-23.484877 42.442648-3.27151 3.26537-7.603165 5.809309-11.897981 7.753591-39.986713 18.10024-67.414389 50.476625-92.342128 83.501786-25.251104 33.452903-53.455469 61.907978-90.024339 83.048461-8.750291 5.057179-14.8318 14.507412-22.200628 21.87931-2.695389 2.693342-5.327332 5.538133-8.405437 7.761778-8.870018 6.415107-18.228153 3.121084-18.171871-7.535627 0.112564-20.216437 0.162706-40.771589 3.813862-60.562331 6.53995-35.461653 16.08228-70.394257 23.644513-105.695251 3.130294-14.609743 5.009084-29.54899 6.316869-44.429909 1.156336-13.170974-6.675026-22.379707-17.015535-29.741371-0.76748-0.546446-1.635243-1.038656-2.535753-1.313925-30.352285-9.31925-45.023426-34.07405-60.619636-58.168818-7.391341-11.414981-14.380522-22.683628-28.120454-29.586852-11.895935-5.973038-11.727089-21.236674-16.677844-32.573883-10.667967-24.440645 7.622608-38.292118 19.883863-54.151317 9.099239-11.773138 19.285229-22.779819 29.447682-33.724079 5.043876-5.434779 3.52222-9.254781-1.188058-13.45443-9.664104-8.613168-24.321942-8.328689-34.633798 0.099261-1.959631 1.603521-6.548136 1.925862-8.970302 0.830925-5.146207-2.330068-9.445116-6.380314-14.491039-8.998955-7.355525-3.817955-15.180747-6.770194-22.557762-10.555403-2.982938-1.527796-5.857405-3.87833-7.840572-6.528694-6.02625-8.04421-11.592013-16.413831-17.334807-24.661679-4.715395-6.77224-11.397584-11.005658-19.542078-8.857738-8.162914 2.15099-14.68956 0.320295-20.48045-4.458545-9.924024-8.18338-20.733207-10.924817-33.719986-9.118682-18.428721 2.563382-34.896788-5.259794-47.178509-16.717753-8.18338-7.632841-10.69662-21.192671-15.352663-32.256658-2.354628-5.591345-3.838422-11.535731-6.172583-18.727527-8.800433 7.559163-14.742772 3.079128-20.50194-1.486864-3.983731-3.15997-7.368828-7.105838-11.56643-9.92914-18.298761-12.32163-16.023952-7.249101-17.267269-6.17463-29.818119-4.465708-16.331967-47.974641 9.611915-72.999594 85.785805-81.110319 144.958486-103.155405 226.774887-119.102608 98.80533-18.289552 165.491125-6.009877 225.873354 20.324908-10.30367 8.390088-21.287839 13.290701-33.534767 13.577227-21.315468 0.50449-40.772612 7.061836-59.69559 15.691377-6.025227 2.744507-13.480013 5.427616-16.766872 10.368138-6.880711 10.342556-17.480116 13.764492-27.466562 19.164478-9.898441 5.354961-19.832697 11.570523-27.65485 19.408025-7.66968 7.676843-11.212366 19.444864-19.186991 26.646893-18.132986 16.368806-27.874861 34.513048-21.849634 59.004859 0.556679 2.26867-1.916653 5.258771-2.986007 7.916297-2.533706-1.612731-5.849218-2.688225-7.463995-4.931313-6.231935-8.664334-12.485359-17.396205-17.655102-26.678616-5.273097-9.463536-13.216-10.799974-22.687722-9.335622-19.185968 2.959402-29.813003 15.057951-36.876885 31.849382-3.77907 8.989745-3.28072 16.09149 3.762697 22.954805 17.48114 17.039072 35.026748 34.030048 52.057633 51.490721 3.449565 3.535523 7.439436 9.625218 6.564509 13.56904-2.952238 13.280468 1.221828 23.846104 8.768711 34.212196 2.52552 3.469008 3.02694 8.391111 5.671163 11.728112 2.323928 2.923586 6.581905 6.685259 9.582239 6.364965 8.770757-0.932232 17.262152-4.149507 26.015513-5.598508 4.435009-0.731664 11.594059-1.305739 13.356193 1.042749 5.227048 6.959505 9.713222 3.596921 14.728446 1.086751 5.956665-2.976798 11.531638-7.063883 17.809621-8.953929 7.362688-2.215458 15.405875-3.993964 22.980387-3.497661 23.545252 1.547239 46.963615 4.951779 70.51296 6.317892 22.429849 1.295506 42.558281 6.281053 55.247278 26.058492 5.027503 7.839549 12.374842 10.310833 20.62883 11.766998 7.208169 1.272993 14.482853 2.339278 21.771863 2.993171 12.465916 1.112334 21.672602 6.540973 29.350468 16.490579 8.612145 11.163247 17.84646 22.405289 28.880771 31.111578 15.33629 12.092409 34.453696 17.200754 53.769624 20.686135 11.003612 1.988284 21.044292 5.717212 27.590382 15.21247 5.485945 7.960299 10.619872 16.149818 15.905248 24.238031 0.030699 0.627287 0.062422 1.258667 0.092098 1.885953-7.710612 10.610662-15.258519 21.340027-23.183002 31.792077C858.486362 595.752496 854.239642 601.911776 853.883531 611.92585z" p-id="34135" fill="#ff6600"></path></svg>