<?xml version="1.0" standalone="no"?><!DOCTYPE svg PUBLIC "-//W3C//DTD SVG 1.1//EN" "http://www.w3.org/Graphics/SVG/1.1/DTD/svg11.dtd"><svg t="1488693818366" class="icon" style="" viewBox="0 0 1024 1024" version="1.1" xmlns="http://www.w3.org/2000/svg" p-id="36774" xmlns:xlink="http://www.w3.org/1999/xlink" width="128" height="128"><defs><style type="text/css"></style></defs><path d="M474.948641 395.517055c54.521754-13.486152 113.639177 9.636474 143.138024 60.283991 0.328481 0.565888 0.64366 1.134847 0.961908 1.702782l105.548918-59.812247 0 0 236.227166-133.867894c-2.753717-5.581112-5.438872-11.184737-8.647961-16.639982-73.443709-124.859729-239.048421-165.986405-369.959983-91.90927l-0.001023-0.002047-0.1361 0.077771c-0.007163 0.004093-0.01535 0.008186-0.021489 0.01228l0 0-135.475508 76.773548c-28.058033 15.899108-38.038338 50.487881-22.294772 77.253478L474.948641 395.517055zM105.716228 439.148785l76.264964 130.949424c15.774265 27.087938 50.726312 36.361139 78.069053 20.711717l116.948549-66.936505c-1.208525-39.239699 15.855106-77.94114 47.797609-103.546308l-71.548546-122.855072 0 0L220.512764 69.560262c-5.696746 2.747577-11.411911 5.429663-16.983813 8.619308C75.98816 151.178141 32.222377 312.757167 105.719298 439.148785L105.716228 439.148785zM911.489018 586.906014l-0.054235-0.092098c-0.013303-0.020466-0.022513-0.039909-0.034792-0.060375l-0.001023 0-76.386738-130.227993c-15.818267-26.969235-50.79999-36.243459-78.131475-20.713764L634.586454 505.311671c4.476965 39.045271-9.441023 78.668711-38.407752 106.493429l67.873854 115.711372 0.001023 0 133.103484 226.922243c5.693676-2.726088 11.407817-5.386684 16.978696-8.55177 127.490649-72.449056 171.053818-233.137805 97.352235-358.980931L911.489018 586.906014zM557.508985 637.416408c-59.433624 25.588795-130.067334 3.449565-163.241898-53.511751-2.440585-4.189416-4.604878-8.462742-6.51846-12.793374l-88.269369 50.022277 0 0L63.17432 755.046478c2.750647 5.578042 5.434779 11.17655 8.638751 16.626679 73.388451 124.763538 238.981906 165.78993 369.935424 91.688235l0.002047 0.004093 135.678122-76.888158c28.067242-15.905248 38.065967-50.483788 22.331611-77.229942L557.508985 637.416408z" p-id="36775" fill="#47a8ef"></path><path d="M474.948641 395.517055c54.521754-13.486152 113.639177 9.636474 143.138024 60.283991 0.328481 0.565888 0.64366 1.134847 0.961908 1.702782l105.548918-59.812247 0 0 236.227166-133.867894c-2.753717-5.581112-5.438872-11.184737-8.647961-16.639982-73.443709-124.859729-239.048421-165.986405-369.959983-91.90927l-0.001023-0.002047-0.1361 0.077771c-0.007163 0.004093-0.01535 0.008186-0.021489 0.01228l0 0-135.475508 76.773548c-28.058033 15.899108-38.038338 50.487881-22.294772 77.253478L474.948641 395.517055zM105.716228 439.148785l76.264964 130.949424c15.774265 27.087938 50.726312 36.361139 78.069053 20.711717l116.948549-66.936505c-1.208525-39.239699 15.855106-77.94114 47.797609-103.546308l-71.548546-122.855072 0 0L220.512764 69.560262c-5.696746 2.747577-11.411911 5.429663-16.983813 8.619308C75.98816 151.178141 32.222377 312.757167 105.719298 439.148785L105.716228 439.148785zM911.489018 586.906014l-0.054235-0.092098c-0.013303-0.020466-0.022513-0.039909-0.034792-0.060375l-0.001023 0-76.386738-130.227993c-15.818267-26.969235-50.79999-36.243459-78.131475-20.713764L634.586454 505.311671c4.476965 39.045271-9.441023 78.668711-38.407752 106.493429l67.873854 115.711372 0.001023 0 133.103484 226.922243c5.693676-2.726088 11.407817-5.386684 16.978696-8.55177 127.490649-72.449056 171.053818-233.137805 97.352235-358.980931L911.489018 586.906014zM557.508985 637.416408c-59.433624 25.588795-130.067334 3.449565-163.241898-53.511751-2.440585-4.189416-4.604878-8.462742-6.51846-12.793374l-88.269369 50.022277 0 0L63.17432 755.046478c2.750647 5.578042 5.434779 11.17655 8.638751 16.626679 73.388451 124.763538 238.981906 165.78993 369.935424 91.688235l0.002047 0.004093 135.678122-76.888158c28.067242-15.905248 38.065967-50.483788 22.331611-77.229942L557.508985 637.416408z" p-id="36776" fill="#47a8ef"></path></svg>