<?xml version="1.0" standalone="no"?><!DOCTYPE svg PUBLIC "-//W3C//DTD SVG 1.1//EN" "http://www.w3.org/Graphics/SVG/1.1/DTD/svg11.dtd"><svg t="1488692983524" class="icon" style="" viewBox="0 0 1061 1024" version="1.1" xmlns="http://www.w3.org/2000/svg" p-id="32602" xmlns:xlink="http://www.w3.org/1999/xlink" width="132.625" height="128"><defs><style type="text/css"></style></defs><path d="M950.857143 365.714286q0-45.714286-32-77.714286t-77.714286-32l-36.571429 0 0 219.428571 36.571429 0q45.714286 0 77.714286-32t32-77.714286zm-950.857143 438.857143l1024 0q0 60.571429-42.857143 103.428571t-103.428571 42.857143l-731.428571 0q-60.571429 0-103.428571-42.857143t-42.857143-103.428571zm1060.571429-438.857143q0 90.857143-64.285714 155.142857t-155.142857 64.285714l-36.571429 0 0 18.285714q0 52.571429-37.714286 90.285714t-90.285714 37.714286l-402.285714 0q-52.571429 0-90.285714-37.714286t-37.714286-90.285714l0-420.571429q0-14.857143 10.857143-25.714286t25.714286-10.857143l658.285714 0q90.857143 0 155.142857 64.285714t64.285714 155.142857z" p-id="32603" fill="#ffb400"></path></svg>