<?xml version="1.0" standalone="no"?><!DOCTYPE svg PUBLIC "-//W3C//DTD SVG 1.1//EN" "http://www.w3.org/Graphics/SVG/1.1/DTD/svg11.dtd"><svg t="1488691551699" class="icon" style="" viewBox="0 0 1024 1024" version="1.1" xmlns="http://www.w3.org/2000/svg" p-id="11893" xmlns:xlink="http://www.w3.org/1999/xlink" width="32" height="32"><defs><style type="text/css"></style></defs><path d="M528.381086 913.99663c-98.434893 0-178.23231-31.780821-178.23231-70.983681l0 42.494837c0 39.808658 81.029478 68.849064 180.983981 68.849064s181.372837-31.038924 181.372837-65.213257l-0.363274-45.808302C707.053418 882.598526 626.815979 913.99663 528.381086 913.99663zM528.381086 835.650261c-98.434893 0-178.23231-31.780821-178.23231-70.983681l0 42.494837c0 39.808658 81.029478 68.849064 180.983981 68.849064s181.372837-31.038924 181.372837-65.213257l-0.363274-45.808302C707.053418 804.25318 626.815979 835.650261 528.381086 835.650261zM132.6256 611.064226l0 42.494837c0 37.989219 73.794703 66.171072 167.407778 68.666916 0.48607-14.503319 9.289574-28.204365 24.605398-40.384779-4.549619 0.137123-9.144264 0.206708-13.779841 0.206708C212.423017 682.048931 132.6256 650.26811 132.6256 611.064226zM135.89711 689.410596l0 42.494837c0 37.989219 73.794703 60.717873 167.407778 63.213717l0-40.312124C209.911824 752.578264 135.89711 727.165478 135.89711 689.410596zM535.838941 649.666406c-101.466949 0-183.722348 32.760125-183.722348 73.170486 0 40.411385 82.255399 73.170486 183.722348 73.170486 101.466949 0 183.722348-32.759101 183.722348-73.170486C719.561289 682.425508 637.305891 649.666406 535.838941 649.666406zM313.609581 644.062781c99.954503 0 181.372837-31.038924 181.372837-65.213257l-0.363274-45.807279c-5.087878 39.264259-85.325317 70.66134-183.760211 70.66134s-178.23231-31.780821-178.23231-70.983681l0 42.494837C132.6256 615.022375 213.655078 644.062781 313.609581 644.062781zM310.858934 525.357216c-98.434893 0-178.23231-31.780821-178.23231-70.983681l0 42.494837c0 39.808658 81.029478 68.848041 180.983981 68.848041 99.954503 0 181.372837-31.038924 181.372837-65.213257l-0.363274-45.808302C489.530242 493.959112 409.293827 525.357216 310.858934 525.357216zM739.362264 600.612177c-98.434893 0-178.169889-32.863479-178.233334-70.983681l0 42.494837c0 39.808658 81.029478 68.848041 180.983981 68.848041 99.954503 0 175.795818-30.404474 181.372837-65.213257l-0.363274-45.808302C923.813207 565.287647 837.797158 600.612177 739.362264 600.612177zM514.003634 238.005672l0 122.997312c0 11.614525 9.41237 21.028942 21.022803 21.028942l78.949097 0c11.610432 0 21.022803-9.41544 21.022803-21.028942L634.998335 238.005672l89.147366 0c8.209986-8.212032 8.209986-21.527292 0-29.739325L589.366042 73.446779c-8.209986-8.212032-21.520129-8.212032-29.731138 0l-134.779659 134.819568c-8.209986 8.212032-8.209986 21.527292 0 29.739325L514.003634 238.005672zM312.412312 498.182296c101.466949 0 183.722348-32.759101 183.722348-73.170486 0-40.410362-82.255399-73.170486-183.722348-73.170486-101.466949 0-183.722348 32.759101-183.722348 73.170486C128.689964 465.422172 210.94434 498.182296 312.412312 498.182296zM561.129954 488.454748c0 40.410362 82.255399 73.170486 183.722348 73.170486 101.466949 0 183.722348-32.759101 183.722348-73.170486s-82.255399-73.170486-183.722348-73.170486C643.385353 415.285285 561.129954 448.044386 561.129954 488.454748zM745.003751 682.048931c-4.635577 0-9.231245-0.069585-13.780865-0.206708 15.315824 12.180414 24.318872 31.096229 24.605398 40.384779 93.613074-2.495844 162.081469-30.451546 167.407778-68.666916l0-42.494837C919.877571 651.417283 843.438645 682.048931 745.003751 682.048931zM753.029542 754.807025l0 40.312124c93.613074-2.495844 167.407778-25.224498 167.407778-63.213717l1.408069-40.623209C920.860968 727.703737 846.422605 752.578264 753.029542 754.807025z" p-id="11894" fill="#ffffff"></path></svg>