<?xml version="1.0" standalone="no"?><!DOCTYPE svg PUBLIC "-//W3C//DTD SVG 1.1//EN" "http://www.w3.org/Graphics/SVG/1.1/DTD/svg11.dtd"><svg t="1488691292815" class="icon" style="" viewBox="0 0 1024 1024" version="1.1" xmlns="http://www.w3.org/2000/svg" p-id="8001" xmlns:xlink="http://www.w3.org/1999/xlink" width="32" height="32"><defs><style type="text/css"></style></defs><path d="M985.246538 511.721395c-33.812375 0.293538-199.594558-95.434096-204.821077-100.430648-12.573084-11.979607-7.859831-26.959449 5.013191-28.959179 12.832916-2.059888 84.950766-10.619859 84.950766-10.619859-44.331971-118.536588-143.242448-213.150654-273.099036-243.833091C390.050175 78.893551 175.696355 217.829348 128.35775 429.850221c-0.446707 1.796642-3.293347 23.439549-20.446141 22.752635-11.639564-0.479986-49.705258-15.622811-63.478095-22.059322-15.699609-7.376431-19.926049-5.456485-15.199569-29.189146 53.931699-269.548843 329.990864-451.260601 594.969809-389.095749 219.89393 51.578699 372.669548 242.420011 389.41574 459.803506C1016.45888 501.178333 1001.586128 511.551159 985.246538 511.721395zM639.149891 570.746069c21.799489 0 39.452322 17.672886 39.452322 39.465548 0 21.759383-17.652833 39.432269-39.452322 39.432269l-78.83766 0 0 49.238498c0 27.232508-22.026043 49.238498-49.258551 49.238498-27.179177 0-49.238498-22.00599-49.238498-49.238498l0-49.238498L382.970269 649.643887c-21.752557 0-39.425443-17.672886-39.425443-39.432269 0-21.832768 17.672886-39.465548 39.425443-39.465548l78.844486 0 0-39.358885L382.970269 531.387184c-21.752557 0-39.425443-17.666059-39.425443-39.41563 0-21.786263 17.672886-39.412217 39.425443-39.412217l78.844486 0 0-2.683231L374.370619 362.395279c-15.552839-15.473055-15.552839-40.602156 0-56.138356 15.466228-15.482868 40.598743-15.482868 56.098251 0l79.944402 79.951228 80.24434-80.24434c15.499508-15.499508 40.618796-15.499508 56.118303 0 15.506334 15.476042 15.506334 40.602156 0 56.138356l-86.46411 86.430831 0 4.026766 78.83766 0c21.799489 0 39.452322 17.626381 39.452322 39.412217 0 21.74957-17.652833 39.41563-39.452322 39.41563l-78.83766 0 0 39.358885L639.149891 570.746496zM243.760987 626.424491c17.266284 11.039687 13.139681 33.238952-5.879727 35.199003-18.986129 2.006556-78.504442 7.253128-78.504442 7.253128 47.17861 110.536815 142.749235 197.694239 266.399279 226.866745 207.240635 48.991892 419.16167-83.250975 466.566834-295.271847 0.959973-4.33993 0.926694-3.666669 2.633312-13.012965 1.673339-9.373174 4.446594-23.572665 22.699304-17.246231 18.206204 6.379766 62.69817 19.412783 76.584497 23.125958 13.866274 3.720001 12.319651 9.159847 10.579754 22.046095-0.500039 3.966608-1.333296 7.53984-2.173378 11.286294C940.627856 902.35694 670.602013 1074.398572 399.576519 1010.773708 179.929622 959.241941 27.226962 768.867389 10.174432 551.793219c-2.326547-37.325449 24.019373-44.925447 50.965169-30.699077C82.312334 532.347157 226.46825 615.331472 243.760987 626.424491z" p-id="8002" fill="#ffffff"></path></svg>